<svg xmlns="http://www.w3.org/2000/svg" style="display: none;">
   <symbol id="play-button" viewBox="0 0 60 60"><title>play-button</title><path d="M45.563,29.174l-22-15c-0.307-0.208-0.703-0.231-1.031-0.058C22.205,14.289,22,14.629,22,15v30 c0,0.371,0.205,0.711,0.533,0.884C22.679,45.962,22.84,46,23,46c0.197,0,0.394-0.059,0.563-0.174l22-15 C45.836,30.64,46,30.331,46,30S45.836,29.36,45.563,29.174z M24,43.107V16.893L43.225,30L24,43.107z"/><path d="M30,0C13.458,0,0,13.458,0,30s13.458,30,30,30s30-13.458,30-30S46.542,0,30,0z M30,58C14.561,58,2,45.439,2,30 S14.561,2,30,2s28,12.561,28,28S45.439,58,30,58z"/></symbol><symbol id="pause" viewBox="0 0 60 60"><title>pause</title><path d="M30,0C13.458,0,0,13.458,0,30s13.458,30,30,30s30-13.458,30-30S46.542,0,30,0z M30,58C14.561,58,2,45.439,2,30 S14.561,2,30,2s28,12.561,28,28S45.439,58,30,58z"/><path d="M33,46h8V14h-8V46z M35,16h4v28h-4V16z"/><path d="M19,46h8V14h-8V46z M21,16h4v28h-4V16z"/></symbol><symbol id="mute" viewBox="0 0 59.986 59.986"><title>mute</title><path d="M51.213,8.78C39.517-2.917,20.484-2.916,8.787,8.78C3.121,14.446,0,21.98,0,29.993S3.121,45.54,8.787,51.206 c5.848,5.849,13.531,8.772,21.213,8.772s15.365-2.924,21.213-8.772C62.91,39.509,62.91,20.477,51.213,8.78z M10.201,10.194 C15.66,4.736,22.83,2.007,30,2.007c6.858,0,13.713,2.504,19.074,7.498L42,16.579v-6.479c0-1.127-0.584-2.134-1.563-2.693 c-0.978-0.561-2.143-0.553-3.115,0.019c-0.063,0.037-0.121,0.081-0.174,0.131L23.906,19.884c-0.149,0.072-0.313,0.109-0.479,0.109 h-8.324c-1.711,0-3.104,1.393-3.104,3.104v12.793c0,1.711,1.392,3.104,3.104,3.104h4.482L9.511,49.068 C4.664,43.869,2,37.137,2,29.993C2,22.514,4.913,15.483,10.201,10.194z M21.586,36.993h-6.482c-0.608,0-1.104-0.495-1.104-1.104 V23.096c0-0.608,0.495-1.104,1.104-1.104h8.324c0.551,0,1.095-0.147,1.572-0.428c0.063-0.036,0.122-0.08,0.176-0.131l13.244-12.33 c0.465-0.226,0.868-0.053,1.025,0.037C39.611,9.237,40,9.522,40,10.099v8.479L21.586,36.993z M40,21.407v27.479 c0,0.577-0.389,0.862-0.556,0.958c-0.158,0.09-0.562,0.262-1.025,0.037l-13.244-12.33c-0.054-0.051-0.113-0.095-0.176-0.131 c-0.224-0.132-0.466-0.229-0.713-0.3L40,21.407z M49.799,49.792c-10.68,10.679-27.908,10.904-38.873,0.689l11.488-11.488h1.013 c0.166,0,0.329,0.037,0.479,0.109L37.148,51.43c0.053,0.05,0.112,0.094,0.174,0.131c0.492,0.289,1.033,0.434,1.574,0.434 c0.529,0,1.058-0.138,1.541-0.415C41.416,51.02,42,50.013,42,48.887V19.407l8.488-8.488C60.704,21.884,60.479,39.112,49.799,49.792z "/></symbol><symbol id="speaker" viewBox="0 0 60 60"><title>speaker</title><path d="M40.438,7.413c-0.978-0.561-2.142-0.553-3.115,0.019c-0.063,0.037-0.121,0.081-0.174,0.131L23.906,19.891 C23.756,19.963,23.593,20,23.427,20h-8.324C13.392,20,12,21.393,12,23.104v12.793C12,37.607,13.392,39,15.104,39h8.324 c0.166,0,0.329,0.037,0.479,0.109l13.242,12.328c0.053,0.05,0.112,0.094,0.174,0.131c0.492,0.289,1.033,0.434,1.574,0.434 c0.529,0,1.058-0.138,1.542-0.415C41.416,51.027,42,50.021,42,48.894V10.106C42,8.979,41.416,7.973,40.438,7.413z M40,48.894 c0,0.577-0.389,0.862-0.556,0.958c-0.158,0.09-0.562,0.262-1.025,0.037l-13.244-12.33c-0.054-0.051-0.113-0.095-0.176-0.131 C24.522,37.147,23.979,37,23.427,37h-8.324C14.495,37,14,36.505,14,35.896V23.104C14,22.495,14.495,22,15.104,22h8.324 c0.551,0,1.095-0.147,1.572-0.428c0.063-0.036,0.122-0.08,0.176-0.131l13.244-12.33c0.465-0.226,0.868-0.053,1.025,0.037 C39.611,9.244,40,9.529,40,10.106V48.894z"/><path d="M30,0C13.458,0,0,13.458,0,30s13.458,30,30,30s30-13.458,30-30S46.542,0,30,0z M30,58C14.561,58,2,45.439,2,30 S14.561,2,30,2s28,12.561,28,28S45.439,58,30,58z"/></symbol><symbol id="stop" viewBox="0 0 60 60"><title>stop</title><path d="M16,44h28V16H16V44z M18,18h24v24H18V18z"/><path d="M30,0C13.458,0,0,13.458,0,30s13.458,30,30,30s30-13.458,30-30S46.542,0,30,0z M30,58C14.561,58,2,45.439,2,30 S14.561,2,30,2s28,12.561,28,28S45.439,58,30,58z"/></symbol>
   <symbol id="microphone" viewBox="-20 1 511 511.999"><title>microphone</title><path d="m461.699219 411.058594h-141.074219c-17.394531 0-31.546875 14.152344-31.546875 31.546875 0 17.398437 14.152344 31.550781 31.546875 31.550781h55.023438c4.917968 0 8.921874 4 8.921874 8.921875 0 4.917969-4.003906 8.921875-8.921874 8.921875h-131.316407c-4.183593 0-7.585937-3.402344-7.585937-7.585938v-11.882812c12.621094-4.199219 21.75-16.113281 21.75-30.125v-44.453125h7.855468c16.996094 0 31.078126-13.292969 32.058594-30.261719l4.5-77.785156h6.113282c16.007812 0 29.03125-13.023438 29.03125-29.03125s-13.023438-29.03125-29.03125-29.03125h-2.757813l2.203125-38.128906c.3125-5.386719-1.632812-10.726563-5.335938-14.652344-1.253906-1.328125-2.691406-2.445312-4.242187-3.367188v-137.210937c0-21.21875-17.261719-38.484375-38.480469-38.484375h-67.296875c-21.222656 0-38.484375 17.265625-38.484375 38.484375v136.753906c-1.855468.992188-3.566406 2.269531-5.03125 3.824219-3.703125 3.921875-5.648437 9.261719-5.335937 14.648438l2.203125 38.128906h-2.753906c-12.496094 0-23.171876 7.9375-27.257813 19.03125h-40.1875c-4.414063-16.417969-19.425781-28.542969-37.222656-28.542969-21.253907 0-38.542969 17.289063-38.542969 38.542969 0 17.796875 12.125 32.808594 28.542969 37.222656v202.171875c0 5.519531 4.480469 10 10 10 5.523437 0 10-4.480469 10-10v-202.171875c13.230469-3.558594 23.667969-13.992188 27.222656-27.222656h40.1875c4.082031 11.097656 14.757813 19.03125 27.253906 19.03125h6.113281l4.5 77.785156c.980469 16.96875 15.0625 30.261719 32.058594 30.261719h8.621094v44.453125c0 14.015625 9.128906 25.925781 21.746094 30.128906v11.882812c0 15.210938 12.375 27.585938 27.585937 27.585938h131.316407c15.945312 0 28.921874-12.976562 28.921874-28.925781 0-15.945313-12.976562-28.921875-28.921874-28.921875h-55.023438c-6.367188 0-11.546875-5.179688-11.546875-11.546875 0-6.367188 5.179687-11.550781 11.546875-11.550781h141.074219c5.523437 0 10-4.476563 10-10 0-5.519532-4.476563-9.996094-10-9.996094zm-287.070313-372.574219c0-10.191406 8.292969-18.484375 18.484375-18.484375h67.296875c10.191406 0 18.480469 8.292969 18.480469 18.484375v134.402344h-104.261719zm-10.382812 154.402344h124.238281l-2.253906 38.957031h-119.734375zm-125.199219 86.53125c-10.226563 0-18.546875-8.316407-18.546875-18.546875 0-10.222656 8.320312-18.542969 18.546875-18.542969s18.542969 8.320313 18.542969 18.542969c0 10.230468-8.316406 18.546875-18.542969 18.546875zm135.238281 87.117187-4.429687-76.628906h31.910156c5.523437 0 10-4.480469 10-10 0-5.523438-4.476563-10-10-10h-58.058594c-4.980469 0-9.03125-4.054688-9.03125-9.035156 0-4.976563 4.050781-9.027344 9.03125-9.027344h165.3125c4.980469 0 9.03125 4.050781 9.03125 9.027344 0 4.980468-4.050781 9.035156-9.03125 9.035156h-27.253906c-5.523437 0-10 4.476562-10 10 0 5.519531 4.476563 10 10 10h1.109375l-4.429688 76.628906c-.371093 6.402344-5.683593 11.414063-12.097656 11.414063h-79.96875c-6.410156 0-11.722656-5.011719-12.09375-11.414063zm40.714844 31.414063h23.496094v44.457031c0 6.476562-5.269532 11.746094-11.75 11.746094-6.476563 0-11.746094-5.269532-11.746094-11.746094zm0 0"/><path d="m200.566406 75.8125c2.324219 0 4.660156-.808594 6.554688-2.453125l8.792968-7.644531c4.167969-3.625 4.609376-9.941406.984376-14.109375-3.621094-4.167969-9.9375-4.609375-14.105469-.984375l-8.792969 7.648437c-4.167969 3.621094-4.609375 9.9375-.988281 14.105469 1.980469 2.273438 4.757812 3.4375 7.554687 3.4375zm0 0"/><path d="m254.675781 60.171875-8.792969 7.644531c-4.167968 3.625-4.605468 9.941406-.980468 14.109375 1.976562 2.273438 4.753906 3.4375 7.546875 3.4375 2.328125 0 4.664062-.808593 6.558593-2.453125l8.792969-7.648437c4.167969-3.621094 4.605469-9.9375.984375-14.105469-3.625-4.167969-9.941406-4.609375-14.109375-.984375zm0 0"/><path d="m205.167969 111.996094-8.792969 7.648437c-4.167969 3.625-4.605469 9.941407-.984375 14.105469 1.980469 2.273438 4.757813 3.4375 7.550781 3.4375 2.328125 0 4.664063-.804688 6.558594-2.453125l8.792969-7.644531c4.167969-3.625 4.605469-9.941406.984375-14.109375-3.625-4.167969-9.941406-4.605469-14.109375-.984375zm0 0"/><path d="m245.882812 133.578125-8.792968 7.644531c-4.167969 3.625-4.605469 9.941406-.980469 14.109375 1.976563 2.273438 4.753906 3.4375 7.546875 3.4375 2.328125 0 4.664062-.808593 6.558594-2.453125l8.792968-7.648437c4.167969-3.621094 4.605469-9.9375.984376-14.105469-3.625-4.167969-9.941407-4.609375-14.109376-.984375zm0 0"/><path d="m241.515625 289.90625h.25c5.523437 0 10-4.480469 10-10 0-5.523438-4.476563-10-10-10h-.25c-5.523437 0-10 4.476562-10 10 0 5.519531 4.476563 10 10 10zm0 0"/></symbol><symbol id="smile" viewBox="0 0 479.988 479.988"><title>smile</title><g> <g> <path d="M473.418,184.117c-0.47-0.086-0.947-0.129-1.425-0.129h-464c-4.418,0.004-7.997,3.589-7.993,8.007 c0,0.478,0.044,0.955,0.129,1.425c19.178,105.743,111.276,182.61,218.744,182.568h42.24 c107.468,0.042,199.566-76.825,218.744-182.568C480.648,189.073,477.765,184.908,473.418,184.117z M261.113,359.988h-42.24 c-63.818,0.02-124.047-29.523-163.096-80h48.216v24h16v-24h48v48h16v-48h48v48h16v-48h48v48h16v-48h48v24h16v-24h48.216 C385.16,330.465,324.932,360.008,261.113,359.988z M435.505,263.988h-59.512v-40h-16v40h-48v-40h-16v40h-48v-40h-16v40h-48v-40 h-16v40h-48v-40h-16v40H44.481c-12.446-19.671-21.465-41.312-26.672-64h444.368C456.97,222.676,447.952,244.316,435.505,263.988z"/> </g> </g><g> <g> <path d="M79.859,78.654c-0.568-3.357-3.197-5.986-6.554-6.554c-13.036-2.178-23.25-12.395-25.424-25.432 c-0.737-4.356-4.866-7.291-9.222-6.554c-3.357,0.568-5.986,3.197-6.554,6.554C29.932,59.705,19.718,69.922,6.681,72.1 c-4.356,0.737-7.291,4.866-6.554,9.222c0.568,3.357,3.197,5.986,6.554,6.554c13.036,2.178,23.25,12.395,25.424,25.432 c0.737,4.356,4.866,7.291,9.222,6.554c3.357-0.568,5.986-3.197,6.554-6.554c2.174-13.037,12.388-23.254,25.424-25.432 C77.662,87.139,80.596,83.01,79.859,78.654z M39.993,91.412c-3.119-4.439-6.985-8.305-11.424-11.424 c4.439-3.119,8.305-6.985,11.424-11.424c3.119,4.439,6.985,8.305,11.424,11.424C46.978,83.107,43.113,86.972,39.993,91.412z"/> </g> </g><g> <g> <path d="M448.793,308.436c-35.713,70.765-108.182,115.438-187.448,115.552h-42.704c-79.266-0.114-151.735-44.787-187.448-115.552 l-14.4,7.104c38.441,76.219,116.484,124.336,201.848,124.448h42.704c85.364-0.112,163.407-48.229,201.848-124.448L448.793,308.436 z"/> </g> </g><g> <g> <path d="M289.697,112.172c-2.413-0.527-4.935,0.09-6.832,1.672l-42.872,35.744l-42.872-35.728 c-1.897-1.582-4.419-2.199-6.832-1.672l-184,40l3.408,15.616l180.176-39.2l44.992,37.496c2.969,2.48,7.287,2.48,10.256,0 l44.992-37.496l180.176,39.2l3.408-15.632L289.697,112.172z"/> </g> </g></symbol><symbol id="levels-controls" viewBox="0 0 470.392 470.392"><title>levels-controls</title><path style="fill:#010002;" d="M83.432,63.748v162.523c0,4.487,3.633,8.129,8.129,8.129c4.495,0,8.129-3.642,8.129-8.129V63.748 c0-4.487-3.633-8.129-8.129-8.129S83.432,59.261,83.432,63.748z"/><path style="fill:#010002;" d="M99.689,406.644v-53.372c0-4.487-3.633-8.129-8.129-8.129s-8.129,3.642-8.129,8.129v53.372 c0,4.487,3.633,8.129,8.129,8.129C96.055,414.773,99.689,411.139,99.689,406.644z"/><path style="fill:#010002;" d="M244.077,112.471V63.748c0-4.487-3.633-8.129-8.129-8.129s-8.129,3.642-8.129,8.129v48.723 c0,4.487,3.633,8.129,8.129,8.129C240.435,120.6,244.077,116.958,244.077,112.471z"/><path style="fill:#010002;" d="M244.077,406.644V242.528c0-4.487-3.633-8.129-8.129-8.129s-8.129,3.642-8.129,8.129v164.116 c0,4.487,3.633,8.129,8.129,8.129C240.435,414.773,244.077,411.139,244.077,406.644z"/><path style="fill:#010002;" d="M378.84,55.62c-4.495,0-8.129,3.642-8.129,8.129v133.057c0,4.487,3.633,8.129,8.129,8.129 s8.129-3.642,8.129-8.129V63.748C386.969,59.261,383.327,55.62,378.84,55.62z"/><path style="fill:#010002;" d="M386.969,406.644v-80.798c0-4.487-3.633-8.129-8.129-8.129s-8.129,3.642-8.129,8.129v80.798 c0,4.487,3.633,8.129,8.129,8.129C383.327,414.773,386.969,411.139,386.969,406.644z"/><path style="fill:#010002;" d="M140.763,337.34c23.353,0,42.35-18.996,42.35-42.35c0-23.353-18.996-42.35-42.35-42.35H42.358 C19.005,252.64,0,271.637,0,294.99c0,23.353,19.005,42.35,42.358,42.35H140.763z M16.257,294.99 c0-14.388,11.705-26.093,26.101-26.093h98.396c14.388,0,26.093,11.705,26.093,26.093s-11.705,26.093-26.093,26.093H42.358 C27.97,321.083,16.257,309.378,16.257,294.99z"/><path style="fill:#010002;" d="M327.5,179.475c0-23.353-19.005-42.358-42.358-42.358h-98.396c-23.353,0-42.35,18.996-42.35,42.358 c0,23.353,18.996,42.35,42.35,42.35h98.396C308.496,221.825,327.5,202.828,327.5,179.475z M285.142,205.568h-98.396 c-14.379,0-26.093-11.705-26.093-26.093s11.705-26.101,26.093-26.101h98.396c14.396,0,26.101,11.713,26.101,26.101 C311.243,193.862,299.538,205.568,285.142,205.568z"/><path style="fill:#010002;" d="M428.035,218.403h-98.396c-23.353,0-42.35,18.996-42.35,42.358c0,23.353,18.996,42.35,42.35,42.35 h98.396c23.353,0,42.358-18.996,42.358-42.35C470.392,237.407,451.396,218.403,428.035,218.403z M428.035,286.861h-98.396 c-14.388,0-26.093-11.705-26.093-26.093c0-14.396,11.705-26.101,26.093-26.101h98.396c14.396,0,26.101,11.705,26.101,26.101 C454.135,275.148,442.43,286.861,428.035,286.861z"/></symbol><symbol id="drum-set" viewBox="0 -42 511.99957 511"><title>drum-set</title><path d="m439.539062 278.578125c12.101563 0 21.949219-9.847656 21.949219-21.949219v-55.300781c0-8.246094-6.714843-14.957031-14.972656-14.957031h-72.625c-12.222656-23.570313-30.335937-43.582032-52.722656-58.125-24.839844-16.136719-53.691407-24.667969-83.441407-24.667969-32.53125 0-63.933593 10.367187-89.867187 29.117187l4.863281-19.519531c0-.003906 0-.011719.003906-.015625.988282-3.996094.363282-8.140625-1.757812-11.667968-1.535156-2.550782-3.726562-4.546876-6.320312-5.839844-1.003907-.5-2.0625-.90625-3.175782-1.183594l-97.882812-24.382812c-.402344-.101563-.804688-.171876-1.207032-.242188-.097656-.015625-.195312-.042969-.292968-.054688-.128906-.019531-.253906-.023437-.378906-.039062-3.402344-.421875-6.820313.285156-9.800782 2.078125-2.617187 1.574219-4.660156 3.835937-5.949218 6.519531-.015626.035156-.039063.070313-.058594.109375-.050782.105469-.085938.214844-.132813.320313-.363281.816406-.667969 1.667968-.886719 2.550781l-6.460937 25.925781c-.003906.019532-.003906.035156-.007813.050782l-17.53125 70.355468c-3.957031 15.882813 5.742188 32.023438 21.628907 35.984375l22.101562 5.503907-16.785156 59.90625c-.246094.878906-.371094 1.789062-.371094 2.699218v88.511719l-18.96875 12.839844c-4.574219 3.097656-5.773437 9.3125-2.679687 13.886719 3.097656 4.574218 9.3125 5.773437 13.886718 2.679687l17.765626-12.023437 17.761718 12.023437c1.71875 1.160156 3.667969 1.71875 5.59375 1.71875 3.210938 0 6.359375-1.539063 8.292969-4.398437 3.09375-4.570313 1.894531-10.789063-2.679687-13.886719l-18.96875-12.839844v-87.136719l16.570312-59.148437 22.789062 5.675781c-1.609374 8.96875-2.433593 18.097656-2.433593 27.261719 0 46.988281 21.578125 91.230469 58.171875 120.242187l-7.21875 10.679688c-3.8125 5.644531-5.199219 12.433594-3.902344 19.121094 1.292969 6.691406 5.117188 12.476562 10.753906 16.277343 4.265625 2.890625 9.191406 4.386719 14.230469 4.386719 1.625 0 3.265625-.152344 4.898437-.472656 6.6875-1.292969 12.472657-5.113282 16.285157-10.757813l9.84375-14.574219c16.132812 5.597657 33.007812 8.4375 50.277343 8.4375 17.265626 0 34.132813-2.839843 50.269532-8.4375l9.851562 14.582032c4.925782 7.277344 12.976563 11.207031 21.167969 11.207031 4.914063 0 9.875-1.414063 14.242187-4.367187 11.644532-7.867188 14.71875-23.753907 6.847657-35.402344l-7.21875-10.679688c30.96875-24.5 51.160156-59.613281 56.65625-98.582031h5.121093v91.6875l-18.972656 12.839844c-4.574218 3.09375-5.769531 9.3125-2.675781 13.886719 3.09375 4.574218 9.3125 5.769531 13.886719 2.675781l17.761718-12.019531 17.761719 12.019531c1.71875 1.164062 3.667969 1.71875 5.597657 1.71875 3.207031 0 6.355468-1.539063 8.289062-4.394531 3.097656-4.574219 1.898438-10.792969-2.675781-13.886719l-18.972657-12.839844v-91.6875zm-396.355468-187.980469 89.019531 22.179688-2.933594 11.789062-89.019531-22.179687zm59.167968 94.296875c-.132812.246094-.265624.484375-.394531.730469-.652343 1.238281-1.285156 2.488281-1.902343 3.742188-.1875.382812-.367188.765624-.550782 1.148437-.429687.894531-.855468 1.785156-1.265625 2.6875-.21875.476563-.429687.953125-.644531 1.433594-.367188.824219-.726562 1.652343-1.082031 2.484375-.210938.496094-.417969.988281-.621094 1.484375-.355469.859375-.699219 1.726562-1.039063 2.59375-.175781.453125-.355468.902343-.53125 1.355469-.414062 1.09375-.816406 2.191406-1.207031 3.296874-.078125.222657-.164062.445313-.242187.671876-.429688 1.234374-.847656 2.476562-1.246094 3.71875l-64.28125-16.007813c-5.179688-1.289063-8.34375-6.558594-7.054688-11.738281l15.125-60.703125 89.023438 22.179687-3.332031 13.371094c-.277344.324219-.542969.652344-.8125.976562-.332031.394532-.660157.789063-.988281 1.183594-.605469.738282-1.203126 1.484375-1.800782 2.234375-.292968.371094-.585937.738281-.875 1.109375-.730468.941406-1.445312 1.890625-2.152344 2.84375-.136718.183594-.277343.363282-.410156.546875-.832031 1.136719-1.648437 2.285157-2.453125 3.445313-.238281.34375-.46875.695312-.703125 1.042968-.558594.824219-1.117187 1.648438-1.660156 2.480469-.285156.441407-.566406.886719-.847656 1.328125-.484375.761719-.964844 1.527344-1.4375 2.296875-.28125.460938-.5625.921875-.839844 1.386719-.472656.792969-.9375 1.589844-1.398438 2.386719-.246093.433593-.5.863281-.742187 1.300781-.558594.988281-1.101563 1.988281-1.632813 2.988281zm58.679688 220.304688c-.820312 1.21875-2.070312 2.042969-3.511719 2.320312-1.441406.28125-2.902343-.019531-4.128906-.847656-1.214844-.824219-2.039063-2.070313-2.316406-3.511719-.28125-1.441406.019531-2.90625.839843-4.121094l7.09375-10.5c.261719.15625.527344.300782.785157.453126 1.035156.613281 2.078125 1.210937 3.128906 1.796874.429687.238282.855469.484376 1.285156.71875 1.4375.789063 2.890625 1.558594 4.351563 2.296876.042968.023437.085937.046874.128906.066406zm161.027344 1.476562c-2.515625 1.699219-5.945313 1.03125-7.644532-1.476562l-7.652343-11.324219c.039062-.019531.078125-.042969.117187-.0625 1.480469-.75 2.945313-1.527344 4.402344-2.324219.394531-.21875.789062-.441406 1.183594-.664062 1.082031-.601563 2.15625-1.21875 3.222656-1.851563.246094-.144531.503906-.28125.75-.429687l7.09375 10.492187c1.699219 2.515625 1.039062 5.941406-1.472656 7.640625zm48.570312-138.902343v.003906c-3.207031 39.90625-24.011718 75.933594-57.074218 98.84375-7.15625 4.957031-14.832032 9.214844-22.855469 12.699218-.863281.375-1.730469.75-2.605469 1.109376-16.007812 6.519531-32.953125 9.828124-50.367188 9.828124-17.417968 0-34.367187-3.308593-50.359374-9.824218-1.121094-.457032-2.230469-.929688-3.339844-1.417969-6.636719-2.929687-13.046875-6.40625-19.125-10.375-1.011719-.660156-2.015625-1.332031-3.007813-2.019531-36.007812-24.949219-57.507812-65.960938-57.507812-109.703125 0-10.996094 1.34375-21.9375 3.992187-32.519531 1.285156-5.125 2.878906-10.171876 4.773438-15.109376.804687-2.09375 1.671875-4.164062 2.578125-6.21875.640625-1.445312 1.300781-2.882812 1.992187-4.304687.0625-.128906.117188-.261719.183594-.386719.699219-1.429687 1.433594-2.84375 2.183594-4.246094.59375-1.113281 1.203125-2.214843 1.828125-3.308593 4.496093-7.871094 9.789062-15.300781 15.808593-22.117188 25.324219-28.679687 61.773438-45.128906 100.003907-45.128906 51.613281 0 99.066406 30.230469 120.898437 77.019531.488282 1.050782.964844 2.113282 1.429688 3.175782 3.242187 7.460937 5.804687 15.226562 7.625 23.136718v.003906c2.246094 9.789063 3.386718 19.882813 3.386718 30.003907-.003906 3.597656-.148437 7.25-.441406 10.855469zm14.492188-53.277344c-.152344-.527344-.320313-1.050782-.476563-1.578125-.226562-.753907-.449219-1.511719-.6875-2.265625-.023437-.078125-.046875-.152344-.070312-.226563-.160157-.511719-.335938-1.015625-.503907-1.527343-.246093-.738282-.488281-1.480469-.742187-2.214844-.035156-.105469-.070313-.210938-.105469-.316406h58.953125v8.300781h-56.316406c-.019531-.054688-.035156-.113281-.050781-.171875zm19.601562 44.082031c-.019531 0-.039062-.003906-.058594-.003906-.019531 0-.039062.003906-.058593.003906h-13.546875c.007812-.554687.007812-1.105469.007812-1.660156 0-7.453125-.542968-14.898438-1.609375-22.25h52.03125v21.960937c0 1.074219-.875 1.949219-1.949219 1.949219zm0 0"/><path d="m507.601562 383.105469-18.230468-12.335938v-202.113281c8.085937-3.78125 13.707031-11.988281 13.707031-21.484375 0-13.070313-10.632813-23.703125-23.707031-23.703125-3.929688 0-7.761719 1.003906-11.164063 2.820312l-51.71875-38.804687c-1.277343-.960937-2.039062-2.488281-2.039062-4.082031v-15.394532l66.265625-19.703124c12.898437-3.835938 20.273437-17.453126 16.4375-30.351563-3.835938-12.898437-17.449219-20.273437-30.351563-16.4375l-134.578125 40.015625c-12.898437 3.835938-20.269531 17.453125-16.4375 30.351562 3.148438 10.585938 12.886719 17.453126 23.40625 17.453126 2.296875 0 4.632813-.328126 6.945313-1.015626l48.3125-14.367187v9.445313c0 7.855468 3.75 15.363281 10.035156 20.078124l51.703125 38.800782c-.332031 1.59375-.519531 3.230468-.519531 4.894531 0 9.496094 5.617187 17.703125 13.703125 21.484375v201.109375l-19.714844 13.339844c-4.574219 3.097656-5.769531 9.316406-2.675781 13.886719 1.933593 2.859374 5.082031 4.398437 8.289062 4.398437 1.929688 0 3.878907-.558594 5.597657-1.71875l17.761718-12.023437 17.765625 12.023437c4.574219 3.09375 10.789063 1.894531 13.886719-2.679687 3.09375-4.574219 1.894531-10.789063-2.679688-13.886719zm-104.980468-332.445313c-.722656.132813-1.417969.335938-2.078125.617188l-60.105469 17.871094c-2.332031.691406-4.789062-.640626-5.480469-2.96875-.691406-2.328126.640625-4.785157 2.96875-5.480469l134.574219-40.015625c.417969-.125.839844-.183594 1.253906-.183594 1.902344 0 3.660156 1.238281 4.226563 3.148438.695312 2.332031-.636719 4.789062-2.96875 5.484374zm76.75 100.214844c-2.039063 0-3.703125-1.660156-3.703125-3.703125 0-1.023437.402343-1.769531.734375-2.21875.339844-.445313 1.300781-1.484375 2.96875-1.484375 2.042968 0 3.707031 1.660156 3.707031 3.703125s-1.664063 3.703125-3.707031 3.703125zm0 0"/><path d="m322.363281 229.039062c-1.730469-5.246093-7.382812-8.09375-12.628906-6.363281-5.242187 1.730469-8.09375 7.386719-6.363281 12.628907.105468.320312.210937.644531.3125.972656 2.078125 6.652344 3.132812 13.59375 3.132812 20.640625 0 38.097656-30.996094 69.089843-69.089844 69.089843-38.097656 0-69.09375-30.992187-69.09375-69.089843 0-38.097657 30.996094-69.09375 69.09375-69.09375 10.253907 0 20.121094 2.191406 29.324219 6.511719 4.996094 2.347656 10.953125.199218 13.300781-4.800782 2.347657-5 .195313-10.957031-4.800781-13.300781-11.882812-5.582031-24.609375-8.410156-37.824219-8.410156-49.125 0-89.09375 39.96875-89.09375 89.09375s39.96875 89.089843 89.09375 89.089843 89.089844-39.964843 89.089844-89.089843c0-9.070313-1.359375-18.023438-4.039062-26.597657-.136719-.429687-.273438-.855468-.414063-1.28125zm0 0"/><path d="m297.242188 214.808594c5.523437 0 10-4.476563 10-10 0-5.523438-4.476563-10-10-10h-.023438c-5.523438 0-9.988281 4.476562-9.988281 10 0 5.523437 4.488281 10 10.011719 10zm0 0"/></symbol>
   <symbol id="ear" viewBox="0 0 512 512"><title>ear</title><g> <g> <path d="M330,165C330,74.019,255.981,0,165,0S0,74.019,0,165c0,41.702,7.756,83.163,15.256,123.258 C22.505,327.009,30,367.08,30,406c0,58.448,47.103,106,105,106c57.897,0,105-47.552,105-106c0-7.449-0.777-15.521-2.134-22.146 c-7.319-35.767,19.024-77.399,43.807-102.182C312.837,250.508,330,209.073,330,165z M208.476,389.869 C209.43,394.533,210,400.563,210,406c0,41.906-33.645,76-75,76s-75-34.094-75-76c0-41.702-7.756-83.163-15.256-123.258 C37.495,243.991,30,203.92,30,165C30,90.561,90.561,30,165,30s135,60.561,135,135c0,36.06-14.042,69.961-39.54,95.459 C228.971,291.949,198.778,342.481,208.476,389.869z"/> </g> </g><g> <g> <path d="M184.617,61.797C118.696,49.724,60,100.154,60,165c0,36.108,6.904,72.8,14.23,111.733 c2.353,12.5,4.786,25.425,6.969,38.303C85.62,341.09,107.694,360,133.688,360c25.27,0,47.207-17.984,52.162-42.762 c0.037-4.611,18.099-53.027-19.431-98.806c-18.918-23.076-46.381-36.854-75.991-38.304C90.149,175.038,90,169.997,90,165 c0-45.217,40.761-82.566,89.213-73.694c58.862,10.78,81.342,84.185,38.823,126.74l21.223,21.204 C298.306,180.151,267.992,77.066,184.617,61.797z M143.219,237.451c27.523,33.572,13.312,68.767,13.213,73.903 C154.271,322.158,144.706,330,133.688,330c-11.311,0-20.946-8.404-22.91-19.981c-2.229-13.144-4.688-26.204-7.081-38.921 c-3.926-20.864-7.73-41.081-10.329-60.659C112.812,212.542,130.654,222.125,143.219,237.451z"/> </g> </g><g> <g> <rect x="361" y="240" width="151" height="30"/> </g> </g><g> <g> <rect x="420.993" y="337.903" transform="matrix(0.4472 -0.8944 0.8944 0.4472 -121.2155 613.8315)" width="29.999" height="134.156"/> </g> </g><g> <g> <rect x="368.938" y="89.998" transform="matrix(0.8944 -0.4472 0.4472 0.8944 -0.9248 206.077)" width="134.156" height="29.999"/> </g> </g></symbol>
</svg>